<svg height="512pt" viewBox="-63 0 512 512" width="512pt" xmlns="http://www.w3.org/2000/svg"><path d="m316.554688 162.183594c35.023437-35.019532 54.308593-81.589844 54.308593-131.117188v-12.007812c-8.617187 0-351.175781 0-355.410156 0v12.007812c0 49.53125 19.289063 96.097656 54.3125 131.117188l78.515625 78.519531c8.449219 8.449219 8.449219 22.148437 0 30.59375l-78.515625 78.519531c-35.023437 35.019532-54.3125 81.589844-54.3125 131.121094v12.003906h355.410156v-12.003906c0-49.53125-19.285156-96.097656-54.308593-131.121094l-78.519532-78.519531c-8.449218-8.445313-8.449218-22.144531 0-30.59375zm0 0" fill="#e9e3d5"/><path d="m339.960938 31.0625c0 41.277344-16.074219 80.082031-45.261719 109.269531l-78.515625 78.515625c-20.484375 20.484375-20.484375 53.816406 0 74.304688l78.515625 78.515625c29.1875 29.1875 45.261719 67.992187 45.261719 109.269531v12.003906h30.902343v-12.003906c0-49.53125-19.285156-96.097656-54.308593-131.121094l-78.519532-78.519531c-8.449218-8.445313-8.449218-22.144531 0-30.59375l78.519532-78.519531c35.023437-35.019532 54.308593-81.589844 54.308593-131.117188v-12.007812h-30.902343zm0 0" fill="#d3cdbf"/><path d="m280.492188 387.246094-13.714844.078125h-.277344c-6.925781-.210938-13.570312-1.394531-19.875-3.394531-20.066406-6.382813-36.300781-21.5-45.351562-40.746094h-15.453126c-11.902343 25.222656-37.019531 43.164062-66.007812 44.039062l-13.972656.003906c-19.40625 21.21875-31.539063 47.339844-35.167969 75.765626v25.828124h244.96875v-25.828124c-3.625-28.410157-15.75-54.523438-35.148437-75.746094zm0 0" fill="#ffb545"/><path d="m185.820312 256h15.453126v103.414062h-15.453126zm0 0" fill="#ffb545"/><path d="m280.492188 387.246094-13.714844.078125h-.277344c-6.886719-.207031-13.550781-1.394531-19.875-3.394531l16.496094 18.664062.261718.289062c.292969.320313.585938.644532.878907.972657.0625.066406.121093.136719.183593.207031 7.808594 8.933594 1.214844 22.945312-10.652343 22.945312h-173.480469c-2.113281 5.027344-3.90625 10.1875-5.410156 15.453126h-.015625c-5.109375 17.953124-4.210938 23.277343-4.210938 46.359374h244.96875v-21.632812c0-15.917969-8.511719-50.796875-35.152343-79.941406zm0 0" fill="#ff983b"/><path d="m193.15625 213.035156c-1.835938-2.539062-3.886719-4.953125-6.144531-7.214844l-62.003907-62.007812c-4.867187-4.867188-1.421874-13.1875 5.460938-13.1875l125.375-.003906c6.886719 0 10.332031 8.324218 5.464844 13.191406l-62.027344 62.035156c-2.25 2.253906-4.292969 4.65625-6.125 7.1875zm0 0" fill="#ffb545"/><g fill="#ff983b"><path d="m255.84375 130.621094h-25.050781l-59.488281 59.492187 14.515624 14.515625v51.371094h15.453126v-52.148438l60.035156-60.039062c4.867187-4.871094 1.417968-13.191406-5.464844-13.191406zm0 0"/><path d="m224.671875 400.226562c0 4.265626-3.460937 7.726563-7.726563 7.726563-4.269531 0-7.726562-3.460937-7.726562-7.726563 0-4.269531 3.457031-7.726562 7.726562-7.726562 4.265626 0 7.726563 3.457031 7.726563 7.726562zm0 0"/><path d="m255.574219 427.011719c0 4.265625-3.457031 7.726562-7.726563 7.726562-4.265625 0-7.726562-3.460937-7.726562-7.726562 0-4.269531 3.460937-7.726563 7.726562-7.726563 4.269532 0 7.726563 3.457032 7.726563 7.726563zm0 0"/><path d="m183.460938 427.011719c0 4.265625-3.457032 7.726562-7.722657 7.726562-4.269531 0-7.726562-3.460937-7.726562-7.726562 0-4.269531 3.457031-7.726563 7.726562-7.726563 4.265625 0 7.722657 3.457032 7.722657 7.726563zm0 0"/><path d="m152.558594 410.527344c0 4.265625-3.460938 7.726562-7.726563 7.726562-4.269531 0-7.726562-3.460937-7.726562-7.726562s3.457031-7.726563 7.726562-7.726563c4.265625 0 7.726563 3.460938 7.726563 7.726563zm0 0"/><path d="m179.34375 154.011719c0 4.265625-3.460938 7.726562-7.726562 7.726562-4.269532 0-7.726563-3.460937-7.726563-7.726562s3.457031-7.726563 7.726563-7.726563c4.265624 0 7.726562 3.460938 7.726562 7.726563zm0 0"/></g><path d="m370.863281 0c-5.078125 0-350.328125 0-355.410156 0-8.535156 0-15.453125 6.917969-15.453125 15.453125v23.179687c0 8.53125 6.917969 15.453126 15.453125 15.453126h355.410156c8.535157 0 15.453125-6.921876 15.453125-15.453126v-23.179687c0-8.535156-6.917968-15.453125-15.453125-15.453125zm0 0" fill="#a05a4b"/><path d="m370.863281 0h-15.449219c0 12.800781-10.378906 23.179688-23.179687 23.179688-9.015625 0-328.695313 0-332.234375 0v15.453124c0 8.53125 6.917969 15.453126 15.453125 15.453126h355.410156c8.535157 0 15.453125-6.921876 15.453125-15.453126v-23.179687c0-8.535156-6.917968-15.453125-15.453125-15.453125zm0 0" fill="#81493b"/><path d="m370.863281 457.914062c-5.078125 0-350.328125 0-355.410156 0-8.535156 0-15.453125 6.921876-15.453125 15.453126v23.179687c0 8.535156 6.917969 15.453125 15.453125 15.453125h355.410156c8.535157 0 15.453125-6.917969 15.453125-15.453125v-23.179687c0-8.53125-6.917968-15.453126-15.453125-15.453126zm0 0" fill="#a05a4b"/><path d="m370.863281 457.914062h-15.449219c0 12.800782-10.378906 23.179688-23.179687 23.179688-9.015625 0-328.695313 0-332.234375 0v15.453125c0 8.535156 6.917969 15.453125 15.453125 15.453125h355.410156c8.535157 0 15.453125-6.917969 15.453125-15.453125v-23.179687c0-8.53125-6.917968-15.453126-15.453125-15.453126zm0 0" fill="#81493b"/></svg>